HIERARCHY
ROOT Hips
{
	OFFSET -0.001795 -0.223333 0.028219
	CHANNELS 6 Xposition Yposition Zposition Zrotation Yrotation Xrotation 
	JOINT LeftUpLeg
	{
		OFFSET 0.069520 -0.091406 -0.006815
		CHANNELS 3 Zrotation Yrotation Xrotation
		JOINT LeftLeg
		{
			OFFSET 0.034277 -0.375199 -0.004496
			CHANNELS 3 Zrotation Yrotation Xrotation
			JOINT LeftFoot
			{
				OFFSET -0.013596 -0.397961 -0.043693
				CHANNELS 3 Zrotation Yrotation Xrotation
				JOINT LeftToe
				{
					OFFSET 0.026358 -0.055791 0.119288
					CHANNELS 3 Zrotation Yrotation Xrotation
					End Site
					{
						OFFSET 0.000000 0.000000 0.000000
					}
				}
			}
		}
	}
	JOINT RightUpLeg
	{
		OFFSET -0.067670 -0.090522 -0.004320
		CHANNELS 3 Zrotation Yrotation Xrotation
		JOINT RightLeg
		{
			OFFSET -0.038290 -0.382569 -0.008850
			CHANNELS 3 Zrotation Yrotation Xrotation
			JOINT RightFoot
			{
				OFFSET 0.015774 -0.398415 -0.042312
				CHANNELS 3 Zrotation Yrotation Xrotation
				JOINT RightToe
				{
					OFFSET -0.025372 -0.048144 0.123348
					CHANNELS 3 Zrotation Yrotation Xrotation
					End Site
					{
						OFFSET 0.000000 0.000000 0.000000
					}
				}
			}
		}
	}
	JOINT Spine
	{
		OFFSET -0.002533 0.108963 -0.026696
		CHANNELS 3 Zrotation Yrotation Xrotation
		JOINT Spine1
		{
			OFFSET 0.005487 0.135180 0.001092
			CHANNELS 3 Zrotation Yrotation Xrotation
			JOINT Spine2
			{
				OFFSET 0.001457 0.052922 0.025425
				CHANNELS 3 Zrotation Yrotation Xrotation
				JOINT Neck
				{
					OFFSET -0.002778 0.213870 -0.042857
					CHANNELS 3 Zrotation Yrotation Xrotation
					JOINT Head
					{
						OFFSET 0.005152 0.064970 0.051349
						CHANNELS 3 Zrotation Yrotation Xrotation
						End Site
						{
							OFFSET 0.000000 0.000000 0.000000
						}
					}
				}
				JOINT LeftShoulder
				{
					OFFSET 0.078845 0.121749 -0.034090
					CHANNELS 3 Zrotation Yrotation Xrotation
					JOINT LeftArm
					{
						OFFSET 0.090977 0.030469 -0.008868
						CHANNELS 3 Zrotation Yrotation Xrotation
						JOINT LeftForeArm
						{
							OFFSET 0.259612 -0.012772 -0.027456
							CHANNELS 3 Zrotation Yrotation Xrotation
							JOINT LeftHand
							{
								OFFSET 0.249234 0.008986 -0.001171
								CHANNELS 3 Zrotation Yrotation Xrotation
								End Site
								{
									OFFSET 0.000000 0.000000 0.000000
								}
							}
						}
					}
				}
				JOINT RightShoulder
				{
					OFFSET -0.081759 0.118833 -0.038615
					CHANNELS 3 Zrotation Yrotation Xrotation
					JOINT RightArm
					{
						OFFSET -0.096012 0.032551 -0.009143
						CHANNELS 3 Zrotation Yrotation Xrotation
						JOINT RightForeArm
						{
							OFFSET -0.253742 -0.013329 -0.021401
							CHANNELS 3 Zrotation Yrotation Xrotation
							JOINT RightHand
							{
								OFFSET -0.255298 0.007772 -0.005559
								CHANNELS 3 Zrotation Yrotation Xrotation
								End Site
								{
									OFFSET 0.000000 0.000000 0.000000
								}
							}
						}
					}
				}
			}
		}
	}
}
MOTION
Frames: 18
Frame Time: 0.050000
0.000000 0.952093 0.000000 0.044277 -6.865202 2.616149 5.115246 0.158687 3.283977 -0.522033 0.203163 -4.661196 2.902773 9.287991 16.018995 0.000000 0.000000 0.000000 -5.354443 0.199971 1.006463 4.349309 -0.380268 -4.239177 -12.083969 -25.773744 26.033269 0.000000 0.000000 0.000000 6.242106 -0.209160 1.241221 -5.465900 1.839577 -22.435293 -0.902599 8.452911 28.844404 8.556366 -3.043193 -23.975046 0.000000 0.000000 0.000000 -13.798181 -1.569816 -0.595493 -45.239999 -8.711116 -4.369924 4.336498 -17.936577 0.080747 0.000000 0.000000 0.000000 21.247458 -7.871748 -4.722606 50.938998 9.570060 -3.685492 -2.906531 18.438614 0.569667 0.000000 0.000000 0.000000 
0.000020 0.950746 0.000641 -0.111951 -7.293813 2.706074 5.828094 0.185622 4.075908 -1.575367 0.323413 -5.947462 3.032447 9.432705 15.966764 0.000000 0.000000 0.000000 -5.255703 0.225911 0.467988 4.140948 -0.365592 -3.775031 -11.926012 -25.600967 26.410541 0.000000 0.000000 0.000000 6.478664 -0.159960 0.683872 -5.857663 1.933918 -22.337712 -1.070403 8.961610 29.061801 8.457273 -2.838865 -24.626141 0.000000 0.000000 0.000000 -14.153748 -0.832431 -1.027056 -47.581306 -9.940958 -4.127760 4.582145 -17.612377 0.062532 0.000000 0.000000 0.000000 22.634289 -8.163541 -4.992799 52.630119 8.847653 -4.097310 -3.447531 20.037511 0.590587 0.000000 0.000000 0.000000 
-0.000004 0.950564 0.001033 0.083122 -7.023088 2.582528 5.822648 0.148280 3.398171 -1.871331 0.314001 -4.611225 2.970803 9.314456 15.604079 0.000000 0.000000 0.000000 -5.818385 0.243870 0.664647 4.679736 -0.394827 -4.085869 -12.218302 -25.862595 27.331996 0.000000 0.000000 0.000000 6.504688 -0.146126 0.556414 -6.333757 2.060588 -22.558608 -0.929435 8.292377 29.567059 8.750998 -3.248909 -23.837156 0.000000 0.000000 0.000000 -14.770415 -1.853731 -0.470119 -48.964550 -8.474565 -4.835920 4.998797 -18.598445 0.030527 0.000000 0.000000 0.000000 22.987679 -7.666337 -4.854375 54.150256 8.173573 -4.470828 -2.160556 20.063849 0.772678 0.000000 0.000000 0.000000 
-0.000168 0.950426 0.001597 0.234044 -7.433852 2.454266 6.041879 0.178169 3.934222 -2.622346 0.388377 -5.142315 3.057615 9.438056 15.816913 0.000000 0.000000 0.000000 -6.142569 0.257008 0.932015 4.970994 -0.403169 -4.128044 -11.753699 -25.395121 26.284336 0.000000 0.000000 0.000000 6.489966 -0.113239 0.262422 -6.815315 2.184916 -22.500222 -0.755294 8.127152 29.915398 8.497408 -3.216983 -23.557657 0.000000 0.000000 0.000000 -15.511841 -1.093393 -0.822492 -50.272573 -8.335238 -5.031814 3.153633 -19.140648 0.359516 0.000000 0.000000 0.000000 24.031880 -7.557235 -5.028218 54.717429 8.114035 -4.568110 -0.357036 20.280303 1.049751 0.000000 0.000000 0.000000 
-0.000371 0.951267 0.002027 0.143324 -7.155489 2.282908 6.144107 0.169960 3.874780 -2.540989 0.373827 -4.733089 2.905227 9.252668 15.888341 0.000000 0.000000 0.000000 -5.963606 0.230515 1.146430 4.762387 -0.396637 -4.255247 -11.891856 -25.473038 27.361720 0.000000 0.000000 0.000000 6.122829 -0.110669 0.311528 -6.113343 2.010692 -22.249141 -0.955826 7.893834 29.514809 8.402878 -3.271689 -22.791967 0.000000 0.000000 0.000000 -16.151986 -1.136684 -0.866975 -51.901735 -7.585649 -5.422750 2.108612 -19.527111 0.548456 0.000000 0.000000 0.000000 24.249627 -7.321652 -4.933270 56.046314 7.555936 -4.821026 0.079891 20.149583 1.108534 0.000000 0.000000 0.000000 
-0.000541 0.951870 0.002283 0.086654 -7.152932 2.301866 6.204814 0.168037 3.885661 -2.525018 0.372631 -4.752608 2.874232 9.234529 16.062832 0.000000 0.000000 0.000000 -6.101650 0.238211 1.163243 5.122358 -0.415204 -4.093612 -11.570555 -25.104751 26.998567 0.000000 0.000000 0.000000 5.888637 -0.094059 0.158905 -6.023225 1.985846 -22.299577 -0.764649 7.526047 29.703480 8.349706 -3.214083 -23.359188 0.000000 0.000000 0.000000 -16.297836 -0.867470 -0.931134 -53.587784 -7.054883 -5.829829 0.641127 -20.231265 0.851654 0.000000 0.000000 0.000000 23.957193 -7.194281 -4.930881 57.464917 7.315770 -4.970094 1.638090 20.298171 1.352471 0.000000 0.000000 0.000000 
-0.000658 0.952198 0.002336 0.062864 -7.201587 2.190230 6.260822 0.171977 3.946697 -2.573183 0.375046 -4.620246 2.878095 9.247390 16.131751 0.000000 0.000000 0.000000 -5.985760 0.225012 1.294119 4.952376 -0.407932 -3.957499 -11.297728 -24.797749 26.604288 0.000000 0.000000 0.000000 5.803567 -0.099689 0.252819 -5.802288 1.930500 -22.132071 -0.880288 7.400953 29.555927 8.516476 -3.346791 -23.326297 0.000000 0.000000 0.000000 -16.825031 -1.175266 -0.785613 -54.457094 -6.329498 -6.217659 -0.194912 -20.427097 1.015421 0.000000 0.000000 0.000000 24.295510 -6.647729 -4.684083 57.928470 6.776654 -5.235326 2.269181 20.830247 1.491123 0.000000 0.000000 0.000000 
-0.000730 0.952395 0.002325 -0.054950 -7.196098 2.312846 6.272788 0.161672 3.785098 -2.365325 0.355800 -4.548255 2.903836 9.287044 16.147973 0.000000 0.000000 0.000000 -5.897304 0.227792 1.119939 4.993444 -0.412745 -3.621061 -10.923177 -24.366905 25.992075 0.000000 0.000000 0.000000 5.765775 -0.083246 0.055861 -5.670539 1.895752 -22.072059 -0.767465 7.380827 29.730926 8.665071 -3.417587 -23.516255 0.000000 0.000000 0.000000 -16.910370 -1.470745 -0.627460 -55.289465 -5.910667 -6.505307 -0.957398 -20.752510 1.175825 0.000000 0.000000 0.000000 24.366923 -6.550180 -4.631285 58.480375 6.554231 -5.383509 2.900155 20.866641 1.600585 0.000000 0.000000 0.000000 
-0.000776 0.952447 0.002335 -0.103982 -7.197044 2.306776 6.337772 0.162572 3.841605 -2.380189 0.358314 -4.621134 2.897561 9.281030 16.167399 0.000000 0.000000 0.000000 -5.796204 0.217646 1.213976 4.911232 -0.407521 -3.741156 -10.874174 -24.305612 25.966049 0.000000 0.000000 0.000000 5.830936 -0.070656 -0.083001 -5.681347 1.901705 -21.892666 -0.713671 7.440611 29.693572 8.673297 -3.440758 -23.319472 0.000000 0.000000 0.000000 -16.915237 -1.694111 -0.527224 -55.863894 -5.755924 -6.623829 -1.480059 -20.702612 1.263972 0.000000 0.000000 0.000000 24.455348 -6.389309 -4.523459 58.574926 6.132226 -5.590112 3.362215 20.781681 1.666713 0.000000 0.000000 0.000000 
-0.000871 0.952573 0.002399 -0.214118 -7.388420 2.285199 6.421318 0.168179 3.930409 -2.351391 0.357025 -4.636660 2.990248 9.406297 16.215751 0.000000 0.000000 0.000000 -5.688668 0.209822 1.298842 4.933654 -0.406188 -3.736592 -10.629202 -24.030454 25.566797 0.000000 0.000000 0.000000 5.993499 -0.051288 -0.290427 -5.714149 1.912062 -21.692978 -0.573869 7.710620 29.845405 8.777690 -3.475243 -23.365579 0.000000 0.000000 0.000000 -16.880335 -1.910094 -0.441787 -56.231217 -5.554288 -6.764199 -1.831304 -20.715683 1.324374 0.000000 0.000000 0.000000 24.581754 -6.308251 -4.434767 58.747482 5.935008 -5.717558 3.585281 20.511211 1.681740 0.000000 0.000000 0.000000 
-0.000984 0.952640 0.002483 -0.246080 -7.407736 2.302295 6.542648 0.168082 4.004617 -2.495461 0.371650 -4.773714 2.977126 9.393809 16.271140 0.000000 0.000000 0.000000 -5.654065 0.206413 1.339254 4.938230 -0.405115 -3.860457 -10.634307 -24.033263 25.688471 0.000000 0.000000 0.000000 6.075876 -0.044359 -0.369793 -5.706238 1.911507 -21.593985 -0.551784 7.780555 29.741877 8.812305 -3.495595 -23.288421 0.000000 0.000000 0.000000 -16.850015 -2.080077 -0.368096 -56.271267 -5.330104 -6.859441 -2.181106 -20.892750 1.394655 0.000000 0.000000 0.000000 24.575592 -6.275001 -4.395995 58.839419 5.581014 -5.886165 3.816154 20.253346 1.691783 0.000000 0.000000 0.000000 
-0.001127 0.952758 0.002584 -0.291528 -7.534146 2.324231 6.638608 0.170871 4.082420 -2.592594 0.382276 -4.885876 3.019817 9.456170 16.353738 0.000000 0.000000 0.000000 -5.701546 0.210831 1.356503 5.018226 -0.407834 -3.791272 -10.216408 -23.531214 25.280395 0.000000 0.000000 0.000000 6.100645 -0.038126 -0.436273 -5.699412 1.908864 -21.496785 -0.452667 7.990876 29.563159 8.851450 -3.469438 -23.404440 0.000000 0.000000 0.000000 -16.676697 -2.235183 -0.312452 -56.258872 -5.245152 -6.872252 -2.555907 -20.778963 1.442549 0.000000 0.000000 0.000000 24.561514 -6.318911 -4.384222 58.953373 5.344212 -5.989597 3.896596 20.031733 1.683943 0.000000 0.000000 0.000000 
-0.001288 0.952959 0.002677 -0.355688 -7.689991 2.315555 6.774763 0.175236 4.196245 -2.728406 0.396129 -4.988436 3.068460 9.528029 16.459306 0.000000 0.000000 0.000000 -5.667297 0.209142 1.393841 5.048970 -0.406583 -3.861506 -10.073788 -23.364005 25.318079 0.000000 0.000000 0.000000 6.065297 -0.029704 -0.514530 -5.629091 1.885650 -21.565265 -0.328644 8.065433 29.597048 8.839754 -3.478490 -23.319685 0.000000 0.000000 0.000000 -16.756106 -2.340815 -0.257269 -55.904502 -5.269554 -6.822946 -2.872510 -20.718906 1.490832 0.000000 0.000000 0.000000 24.613272 -6.168450 -4.302088 58.816419 5.158410 -6.076913 4.061366 19.927225 1.695016 0.000000 0.000000 0.000000 
-0.001460 0.953221 0.002692 -0.468391 -7.864442 2.332808 6.940325 0.177813 4.291641 -2.826660 0.406905 -5.097588 3.130789 9.619177 16.577096 0.000000 0.000000 0.000000 -5.626710 0.210810 1.349494 5.101409 -0.406604 -3.887403 -9.859692 -23.109414 25.528305 0.000000 0.000000 0.000000 6.110954 -0.024654 -0.564606 -5.594239 1.873781 -21.500139 -0.228760 8.114463 29.451604 8.815568 -3.484501 -23.205414 0.000000 0.000000 0.000000 -16.800866 -2.454962 -0.192579 -55.654908 -5.192201 -6.814129 -3.330061 -20.586650 1.557425 0.000000 0.000000 0.000000 24.689455 -6.007834 -4.235493 58.692107 4.982465 -6.135968 3.910444 20.016290 1.674736 0.000000 0.000000 0.000000 
-0.001623 0.953376 0.002643 -0.553562 -8.100740 2.329077 7.063372 0.184418 4.412726 -2.917932 0.417212 -5.202299 3.227722 9.750322 16.676857 0.000000 0.000000 0.000000 -5.674836 0.214821 1.405746 5.245898 -0.409205 -3.960840 -9.476308 -22.648480 25.365350 0.000000 0.000000 0.000000 6.070797 -0.017098 -0.631629 -5.544529 1.856125 -21.478041 -0.175068 8.193745 29.361898 8.848013 -3.492457 -23.314649 0.000000 0.000000 0.000000 -16.738403 -2.615851 -0.090627 -55.425367 -5.291194 -6.734163 -3.474537 -20.544949 1.576966 0.000000 0.000000 0.000000 24.661895 -5.843653 -4.155086 58.662856 4.960026 -6.131793 3.871985 20.060422 1.668324 0.000000 0.000000 0.000000 
-0.001794 0.953412 0.002511 -0.613123 -8.372467 2.320898 7.151181 0.192963 4.529114 -3.002619 0.427277 -5.292805 3.345842 9.907149 16.756739 0.000000 0.000000 0.000000 -5.615994 0.211592 1.481272 5.243456 -0.404638 -4.008077 -9.190826 -22.311087 24.904721 0.000000 0.000000 0.000000 6.023262 -0.028369 -0.505162 -5.583187 1.858511 -21.654858 -0.050808 8.232211 29.275013 8.772320 -3.481814 -23.187193 0.000000 0.000000 0.000000 -16.785116 -2.668701 -0.037309 -55.162685 -5.269695 -6.707974 -3.601245 -20.469328 1.593654 0.000000 0.000000 0.000000 24.661418 -5.715635 -4.122892 58.628456 4.784262 -6.198391 3.785854 20.306314 1.673627 0.000000 0.000000 0.000000 
-0.001909 0.953633 0.002367 -0.705579 -8.492732 2.340672 7.248327 0.198254 4.666905 -3.012507 0.431855 -5.520017 3.381135 9.963095 16.879326 0.000000 0.000000 0.000000 -5.611736 0.210623 1.540164 5.319237 -0.404232 -4.173402 -8.924075 -21.982237 25.002213 0.000000 0.000000 0.000000 5.978428 -0.030610 -0.479269 -5.506694 1.834810 -21.675406 -0.052043 8.162301 29.139659 8.700411 -3.428939 -23.353456 0.000000 0.000000 0.000000 -16.881870 -2.702015 0.002834 -54.968570 -5.445211 -6.594724 -3.831631 -20.514809 1.639946 0.000000 0.000000 0.000000 24.702960 -5.676351 -4.153770 58.561729 4.818683 -6.157824 3.747789 20.523448 1.684373 0.000000 0.000000 0.000000 
-0.001964 0.953760 0.002207 -0.780982 -8.823864 2.327594 7.302601 0.213918 4.893156 -3.037620 0.439569 -5.772120 3.516516 10.146835 17.022470 0.000000 0.000000 0.000000 -5.676234 0.217445 1.594749 5.400311 -0.402445 -4.199750 -8.354902 -21.277715 24.649573 0.000000 0.000000 0.000000 5.937377 -0.041294 -0.356092 -5.487332 1.820967 -21.818474 0.026991 8.191565 29.099734 8.601398 -3.428465 -23.141252 0.000000 0.000000 0.000000 -16.989472 -2.870702 0.128022 -54.718776 -5.420766 -6.583626 -4.112965 -20.589200 1.699281 0.000000 0.000000 0.000000 24.737333 -5.401890 -4.046782 58.319725 4.818823 -6.136116 3.925041 20.845752 1.735590 0.000000 0.000000 0.000000 
